<?xml version="1.0" encoding="UTF-8" standalone="no"?>
<svg viewBox="0 0 131 30" preserveAspectRatio="xMidYMid meet" version="1.1" xmlns="http://www.w3.org/2000/svg" xmlns:xlink="http://www.w3.org/1999/xlink">
    <title>logo_fitnext_green_black</title>
    <defs></defs>
    <g id="fitnext">
        <polygon id="Shape" fill="#383838" points="50.9709091 28.47 53.9184091 28.47 53.9184091 9 50.9709091 10.68"></polygon>
        <path d="M60.4088636,5.22 L57.4315909,6.93 L57.4315909,10.68 L57.4315909,10.68 L57.4315909,13.68 L57.4315909,13.68 L57.4315909,21.96 C57.4315909,25.5553737 60.3241367,28.47 63.8922727,28.47 L66.2443182,28.47 L66.2443182,25.47 L64.5175,25.47 C62.2483628,25.47 60.4088636,23.6164589 60.4088636,21.33 L60.4088636,13.65 L66.3634091,13.65 L66.3634091,10.65 L60.4088636,10.65 L60.4088636,5.22 L60.4088636,5.22 Z" id="Shape" fill="#383838"></path>
        <path d="M76.4563636,10.68 C74.7986158,10.6731674 73.1856708,11.2219556 71.8713636,12.24 L71.8713636,10.68 L68.8940909,10.68 L68.8940909,28.47 L71.8713636,28.47 L71.8713636,18.24 L71.8713636,18.24 C71.7562625,15.705013 73.7023993,13.5559798 76.2181818,13.44 C78.7339644,13.3240202 80.866717,15.285013 80.9818182,17.82 L80.9818182,28.47 L83.9590909,28.47 L83.9590909,18.24 L83.9590909,18.24 C83.9590909,14.0647273 80.6000055,10.68 76.4563636,10.68 L76.4563636,10.68 Z" id="Shape" fill="#383838"></path>
        <path d="M94.4093182,25.5 C91.7951482,25.3753064 89.6478138,23.3760739 89.3181818,20.76 L102.418182,20.76 C102.442559,20.3603771 102.442559,19.9596229 102.418182,19.56 C102.680729,16.4776615 101.197197,13.509294 98.5831844,11.8866363 C95.9691722,10.2639785 92.6708278,10.2639785 90.0568156,11.8866363 C87.4428033,13.509294 85.9592712,16.4776615 86.2218182,19.56 C86.1004336,21.8383123 86.8877943,24.0710067 88.408705,25.7612869 C89.9296157,27.4515671 92.0579023,28.4592081 94.32,28.56 C97.1836794,28.5529244 99.8222509,26.9943684 101.227273,24.48 L98.6668182,23.01 C97.7836038,24.5393348 96.1652883,25.4858071 94.4093182,25.5 L94.4093182,25.5 Z M94.4093182,13.5 C96.7866364,13.6041397 98.799753,15.3006898 99.3218182,17.64 L89.4968182,17.64 C90.0758658,15.3600056 92.075243,13.736084 94.4093182,13.65 L94.4093182,13.5 Z" id="Shape" fill="#383838"></path>
        <polygon id="Shape" fill="#383838" points="120.222273 10.68 116.381591 10.68 111.052273 17.1 105.693182 10.68 101.8525 10.68 109.117045 19.38 101.554773 28.47 105.395455 28.47 111.052273 21.69 116.679318 28.47 120.52 28.47 112.957727 19.38"></polygon>
        <path d="M131,10.68 L125.045455,10.68 L125.045455,5.22 L122.068182,6.93 L122.068182,10.68 L122.068182,10.68 L122.068182,13.68 L122.068182,13.68 L122.068182,21.96 C122.068182,25.5553737 124.960728,28.47 128.528864,28.47 L131,28.47 L131,25.47 L129.243409,25.47 C128.143484,25.4941269 127.079905,25.0727452 126.290844,24.3002165 C125.501783,23.5276878 125.053166,22.4685573 125.045455,21.36 L125.045455,13.65 L131,13.65 L131,10.65 L131,10.68 Z" id="Shape" fill="#383838"></path>
        <path d="M39.5084091,9.21 L39.5084091,28.47 L42.7536364,28.47 L42.7536364,13.65 L48.7081818,13.65 L48.7081818,10.65 L42.7536364,10.65 L42.7536364,9.78 C42.7536364,7.49354114 44.5931355,5.64 46.8622727,5.64 L53.9184091,5.64 L53.9184091,2.64 L45.9988636,2.64 C44.2698623,2.63189717 42.6097828,3.3224598 41.3899819,4.55721026 C40.1701811,5.79196072 39.4924547,7.46785553 39.5084091,9.21 L39.5084091,9.21 Z" id="Shape" fill="#383838"></path>
        <path d="M30.9636364,2.67 L18.0422727,8.1 L18.0422727,29.55 C19.5485868,29.4030094 21.029681,29.0601607 22.4486364,28.53 L22.4486364,10.53 L32.5415909,6.33 L30.9636364,2.67 Z" id="Shape" fill="#7E9729"></path>
        <path d="M1.54818182,2.67 L0,6.45 L10.0929545,10.65 L10.0929545,28.65 C11.5119099,29.1801607 12.9930041,29.5230094 14.4993182,29.67 L14.4993182,8.1 L1.54818182,2.67 Z" id="Shape" fill="#7E9729"></path>
        <ellipse id="Oval" fill="#7E9729" cx="16.2559091" cy="2.97" rx="2.9475" ry="2.97"></ellipse>
    </g>
</svg>
